<?xml version="1.0" standalone="no"?><!DOCTYPE svg PUBLIC "-//W3C//DTD SVG 1.1//EN" "http://www.w3.org/Graphics/SVG/1.1/DTD/svg11.dtd"><svg t="1607483068149" class="icon" viewBox="0 0 1024 1024" version="1.1" xmlns="http://www.w3.org/2000/svg" p-id="1303" width="64" height="64" xmlns:xlink="http://www.w3.org/1999/xlink"><defs><style type="text/css"></style></defs><path d="M871.386719 435.675132A435.772345 435.772345 0 0 0 34.292116 266.085916a435.772345 435.772345 0 0 0 802.838942 339.141976 432.977453 432.977453 0 0 0 34.255661-169.55276zM435.711587 793.579342C238.367874 793.579342 77.807376 633.018845 77.807376 435.675132S238.367874 77.770921 435.711587 77.770921s357.90421 160.560497 357.90421 357.904211-160.548346 357.90421-357.90421 357.90421zM1012.577396 957.627379L860.00057 805.038401a38.890321 38.890321 0 0 0-54.998624 54.998624L957.590924 1012.613851a38.885461 38.885461 0 0 0 54.986472-54.986472z" fill="#bfbfbf" p-id="1304"></path></svg>