<?xml version="1.0" standalone="no"?><!DOCTYPE svg PUBLIC "-//W3C//DTD SVG 1.1//EN" "http://www.w3.org/Graphics/SVG/1.1/DTD/svg11.dtd"><svg t="1607492773450" class="icon" viewBox="0 0 1024 1024" version="1.1" xmlns="http://www.w3.org/2000/svg" p-id="7061" xmlns:xlink="http://www.w3.org/1999/xlink" width="64" height="64"><defs><style type="text/css"></style></defs><path d="M653.31712 540.48256l-213.21216 126.464c-14.72 8.73984-32.43008 9.61024-48.21504 2.34496-15.744-7.25504-24.8832-20.44928-24.8832-35.95264V380.43136c0-15.53408 9.1392-28.7488 24.92416-35.97824 15.77984-7.23456 33.4592-6.39488 48.2048 2.35008l213.20704 126.45376c13.16352 7.82848 20.38272 19.71712 20.38272 33.60256 0 13.91616-7.2192 25.76896-20.40832 33.62304z m276.93568-342.38464c0-29.64992-24.17664-53.70368-53.9648-53.70368H147.712c-29.78816 0-53.9648 24.05888-53.9648 53.70368v617.56416c0 29.64992 24.18176 53.70368 53.9648 53.70368h728.576c29.79328 0 53.9648-24.05888 53.9648-53.70368V198.09792z m-24.86784 754.9184H118.61504c-59.9296 0-108.52352-48.43008-108.52352-108.14976V168.89344c0-59.70944 48.59392-108.14976 108.52352-108.14976h786.7648c59.93984 0 108.52352 48.43008 108.52352 108.14976v675.97824c0 59.71456-48.58368 108.14464-108.5184 108.14464z" p-id="7062" fill="#bfbfbf"></path></svg>